<svg width="720" height="200" viewBox="0 0 720 200" fill="none" xmlns="http://www.w3.org/2000/svg">
<g clip-path="url(#clip0_1123_1029)">
<path d="M273.043 90.3848C273.954 90.4824 274.866 90.5638 275.777 90.6289C276.721 90.6615 277.633 90.6777 278.512 90.6777C284.762 90.6777 289.449 89.3105 292.574 86.5762C295.732 83.8418 297.311 79.7565 297.311 74.3203C297.311 70.7721 296.155 68.1517 293.844 66.459C291.565 64.7663 288.066 63.9199 283.346 63.9199C282.499 63.9199 281.637 63.9525 280.758 64.0176C279.879 64.0501 278.967 64.1152 278.023 64.2129L273.043 90.3848ZM278.902 58.5C279 58.5 279.098 58.5 279.195 58.5C280.725 58.6302 281.832 58.6953 282.516 58.6953C287.854 58.6953 291.988 57.3444 294.918 54.6426C297.848 51.9408 299.312 48.1322 299.312 43.2168C299.312 40.1243 298.303 37.8132 296.285 36.2832C294.299 34.7533 291.272 33.9883 287.203 33.9883C286.552 33.9883 285.462 34.0534 283.932 34.1836C283.704 34.1836 283.541 34.1836 283.443 34.1836L278.902 58.5ZM263.229 28.9102H293.209C299.85 28.9102 304.798 29.9681 308.053 32.084C311.308 34.1673 312.936 37.3411 312.936 41.6055C312.936 46.1302 311.454 50.0039 308.492 53.2266C305.53 56.4167 301.233 58.7441 295.602 60.209C300.68 60.4368 304.537 61.7227 307.174 64.0664C309.811 66.4102 311.129 69.7142 311.129 73.9785C311.129 81.0423 308.655 86.4785 303.707 90.2871C298.759 94.0957 291.695 96 282.516 96H252.73V91.1172L259.127 90.5801L260.641 89.1152L270.748 35.502L269.625 34.0859L263.229 33.5977V28.9102ZM332.76 69.0957C337.936 68.8678 342.232 67.582 345.65 65.2383C349.101 62.8945 350.826 60.1439 350.826 56.9863C350.826 55.4238 350.37 54.1868 349.459 53.2754C348.58 52.3639 347.392 51.9082 345.895 51.9082C343.16 51.9082 340.605 53.4382 338.229 56.498C335.885 59.5254 334.062 63.7246 332.76 69.0957ZM331.93 73.2949C331.93 73.36 331.913 73.474 331.881 73.6367C331.783 74.8411 331.734 75.7363 331.734 76.3223C331.734 80.4889 332.662 83.7116 334.518 85.9902C336.373 88.2689 339.01 89.4082 342.428 89.4082C344.641 89.4082 347.066 88.8223 349.703 87.6504C352.372 86.446 355.172 84.6882 358.102 82.377V88.4805C354.521 91.2474 350.956 93.347 347.408 94.7793C343.893 96.179 340.556 96.8789 337.398 96.8789C331.865 96.8789 327.535 95.2025 324.41 91.8496C321.285 88.4967 319.723 83.8418 319.723 77.8848C319.723 73.1322 320.683 68.6725 322.604 64.5059C324.557 60.3392 327.356 56.7096 331.002 53.6172C333.541 51.4688 336.34 49.8086 339.4 48.6367C342.46 47.4648 345.504 46.8789 348.531 46.8789C352.372 46.8789 355.4 47.8555 357.613 49.8086C359.827 51.7617 360.934 54.431 360.934 57.8164C360.934 62.6992 358.639 66.5241 354.049 69.291C349.492 72.0254 343.144 73.3926 335.006 73.3926C334.68 73.3926 334.176 73.3763 333.492 73.3438C332.809 73.3112 332.288 73.2949 331.93 73.2949ZM398.385 40.9219L384.225 66.8984H402.486L398.385 40.9219ZM398.092 28.3242H408.395L418.6 89.1152L419.625 90.3848L425.387 91.1172V96H399.117V91.1172L405.221 90.4824L406.295 89.0176L403.512 72.416H381.197L372.018 89.2129L372.994 90.6777L378.902 91.1172V96H357.418V91.1172L362.984 90.3848L398.092 28.3242ZM441.695 46.5859H446.285L448.287 83.1094C452.193 75.9154 455.514 69.6165 458.248 64.2129C460.982 58.7767 463.424 53.666 465.572 48.8809L474.947 48.0996C475.208 53.2103 475.517 59.0046 475.875 65.4824C476.233 71.9603 476.673 78.959 477.193 86.4785C480.742 81.791 483.688 77.6081 486.031 73.9297C488.375 70.2188 490.133 67.0124 491.305 64.3105L488.863 49.3203C489.71 48.4089 490.654 47.7253 491.695 47.2695C492.737 46.8138 493.86 46.5859 495.064 46.5859C497.018 46.5859 498.596 47.2533 499.801 48.5879C501.005 49.89 501.607 51.599 501.607 53.7148C501.607 57.263 499.736 62.1296 495.992 68.3145C492.249 74.4668 485.478 83.6953 475.68 96H467.086L465.084 61.4785C461.861 67.7285 458.688 73.7181 455.562 79.4473C452.47 85.1764 449.41 90.694 446.383 96H437.008L437.887 92.9238L435.689 54.8867L427.389 53.7148V50.3945L441.695 46.5859ZM537.447 51.5176C537.317 51.5176 537.105 51.5013 536.812 51.4688C536.552 51.4362 536.324 51.4199 536.129 51.4199C531.344 51.4199 527.291 53.8776 523.971 58.793C520.683 63.6758 519.039 69.8118 519.039 77.2012C519.039 80.9447 519.674 83.793 520.943 85.7461C522.245 87.6992 524.15 88.6758 526.656 88.6758C528.121 88.6758 529.667 88.3014 531.295 87.5527C532.955 86.804 534.778 85.6159 536.764 83.9883L541.451 57.5234L537.447 51.5176ZM549.752 46.6836H555.66C555.237 47.9531 554.716 49.9551 554.098 52.6895C553.479 55.4238 552.861 58.5 552.242 61.918L549.215 78.1289C548.954 79.6914 548.743 81.0911 548.58 82.3281C548.417 83.5326 548.336 84.4603 548.336 85.1113C548.336 86.7064 548.727 88.0085 549.508 89.0176C550.322 89.9941 551.331 90.4824 552.535 90.4824C553.512 90.4824 554.537 90.401 555.611 90.2383C556.718 90.043 557.89 89.7663 559.127 89.4082V93.1191C555.579 94.3887 552.6 95.3164 550.191 95.9023C547.815 96.4883 545.764 96.7812 544.039 96.7812C541.598 96.7812 539.726 96.1465 538.424 94.877C537.154 93.5749 536.52 91.7194 536.52 89.3105V88.8223C533.753 91.459 531.018 93.4447 528.316 94.7793C525.647 96.1139 523.092 96.7812 520.65 96.7812C516.126 96.7812 512.594 95.1862 510.055 91.9961C507.516 88.7734 506.246 84.3138 506.246 78.6172C506.246 75.0039 506.734 71.5534 507.711 68.2656C508.72 64.9453 510.234 61.7552 512.252 58.6953C514.726 54.9193 517.916 51.9733 521.822 49.8574C525.761 47.7415 529.96 46.6836 534.42 46.6836C536.275 46.6836 538.147 46.8952 540.035 47.3184C541.956 47.709 543.958 48.2949 546.041 49.0762L549.752 46.6836ZM581.49 46.6836H584.957L582.174 60.1113C585.299 55.7493 588.326 52.429 591.256 50.1504C594.186 47.8392 596.855 46.6836 599.264 46.6836C601.445 46.6836 603.219 47.3835 604.586 48.7832C605.986 50.1504 606.686 51.9245 606.686 54.1055C606.686 56.5794 605.774 58.6139 603.951 60.209C602.161 61.804 599.833 62.6016 596.969 62.6016H596.773L594.088 54.9844C590.182 56.612 587.171 58.8255 585.055 61.625C582.971 64.4245 581.539 68.1517 580.758 72.8066L576.852 96H564.547L572.555 55.4238L564.254 54.2031V50.6875L581.49 46.6836ZM621.529 69.0957C626.705 68.8678 631.002 67.582 634.42 65.2383C637.87 62.8945 639.596 60.1439 639.596 56.9863C639.596 55.4238 639.14 54.1868 638.229 53.2754C637.35 52.3639 636.161 51.9082 634.664 51.9082C631.93 51.9082 629.374 53.4382 626.998 56.498C624.654 59.5254 622.831 63.7246 621.529 69.0957ZM620.699 73.2949C620.699 73.36 620.683 73.474 620.65 73.6367C620.553 74.8411 620.504 75.7363 620.504 76.3223C620.504 80.4889 621.432 83.7116 623.287 85.9902C625.143 88.2689 627.779 89.4082 631.197 89.4082C633.411 89.4082 635.836 88.8223 638.473 87.6504C641.142 86.446 643.941 84.6882 646.871 82.377V88.4805C643.29 91.2474 639.726 93.347 636.178 94.7793C632.662 96.179 629.326 96.8789 626.168 96.8789C620.634 96.8789 616.305 95.2025 613.18 91.8496C610.055 88.4967 608.492 83.8418 608.492 77.8848C608.492 73.1322 609.452 68.6725 611.373 64.5059C613.326 60.3392 616.126 56.7096 619.771 53.6172C622.311 51.4688 625.11 49.8086 628.17 48.6367C631.23 47.4648 634.273 46.8789 637.301 46.8789C641.142 46.8789 644.169 47.8555 646.383 49.8086C648.596 51.7617 649.703 54.431 649.703 57.8164C649.703 62.6992 647.408 66.5241 642.818 69.291C638.261 72.0254 631.913 73.3926 623.775 73.3926C623.45 73.3926 622.945 73.3763 622.262 73.3438C621.578 73.3112 621.057 73.2949 620.699 73.2949Z" fill="white"/>
<path d="M220.558 138.68H226.798V150.44L237.798 138.68H245.958L233.358 151.84L247.038 167H238.318L226.798 153.56V167H220.558V138.68ZM249.185 138.68H255.425V149.24H267.545V138.68H273.785V167H267.545V154.76H255.425V167H249.185V138.68ZM303.416 156.08C303.416 157.76 303.163 159.307 302.656 160.72C302.15 162.133 301.39 163.36 300.376 164.4C299.39 165.44 298.15 166.253 296.656 166.84C295.163 167.427 293.443 167.72 291.496 167.72C289.523 167.72 287.79 167.427 286.296 166.84C284.803 166.253 283.55 165.44 282.536 164.4C281.55 163.36 280.803 162.133 280.296 160.72C279.79 159.307 279.536 157.76 279.536 156.08V138.68H285.776V155.84C285.776 156.72 285.91 157.533 286.176 158.28C286.47 159.027 286.87 159.68 287.376 160.24C287.883 160.773 288.483 161.2 289.176 161.52C289.896 161.813 290.67 161.96 291.496 161.96C292.323 161.96 293.083 161.813 293.776 161.52C294.47 161.2 295.07 160.773 295.576 160.24C296.083 159.68 296.47 159.027 296.736 158.28C297.03 157.533 297.176 156.72 297.176 155.84V138.68H303.416V156.08ZM314.665 144.2H306.585V138.68H328.985V144.2H320.905V167H314.665V144.2ZM332.153 138.68H342.713C343.94 138.68 345.167 138.773 346.393 138.96C347.647 139.12 348.767 139.467 349.753 140C350.74 140.507 351.54 141.227 352.153 142.16C352.767 143.093 353.073 144.333 353.073 145.88C353.073 147.48 352.62 148.813 351.713 149.88C350.833 150.92 349.66 151.667 348.193 152.12V152.2C349.127 152.333 349.967 152.6 350.713 153C351.487 153.373 352.14 153.867 352.673 154.48C353.233 155.067 353.66 155.76 353.953 156.56C354.247 157.36 354.393 158.213 354.393 159.12C354.393 160.613 354.073 161.867 353.433 162.88C352.793 163.867 351.967 164.667 350.953 165.28C349.94 165.893 348.793 166.333 347.513 166.6C346.26 166.867 345.007 167 343.753 167H332.153V138.68ZM338.393 150H342.913C343.393 150 343.86 149.947 344.313 149.84C344.793 149.733 345.22 149.56 345.593 149.32C345.967 149.08 346.26 148.76 346.473 148.36C346.713 147.96 346.833 147.48 346.833 146.92C346.833 146.333 346.7 145.853 346.433 145.48C346.193 145.08 345.873 144.773 345.473 144.56C345.073 144.347 344.62 144.2 344.113 144.12C343.607 144.013 343.113 143.96 342.633 143.96H338.393V150ZM338.393 161.72H343.993C344.473 161.72 344.953 161.667 345.433 161.56C345.94 161.453 346.393 161.267 346.793 161C347.193 160.733 347.513 160.387 347.753 159.96C348.02 159.533 348.153 159.013 348.153 158.4C348.153 157.733 347.98 157.2 347.633 156.8C347.313 156.373 346.9 156.053 346.393 155.84C345.887 155.627 345.34 155.48 344.753 155.4C344.167 155.32 343.62 155.28 343.113 155.28H338.393V161.72ZM367.411 138.68H372.571L384.891 167H377.851L375.411 161H364.411L362.051 167H355.171L367.411 138.68ZM369.811 146.92L366.371 155.72H373.291L369.811 146.92ZM387.739 138.68H393.979V149.24H406.099V138.68H412.339V167H406.099V154.76H393.979V167H387.739V138.68ZM448.447 146.04C447.834 145.293 447.074 144.72 446.167 144.32C445.287 143.92 444.26 143.72 443.087 143.72C441.914 143.72 440.82 143.947 439.807 144.4C438.82 144.853 437.954 145.493 437.207 146.32C436.487 147.12 435.914 148.08 435.487 149.2C435.087 150.32 434.887 151.533 434.887 152.84C434.887 154.173 435.087 155.4 435.487 156.52C435.914 157.613 436.487 158.573 437.207 159.4C437.927 160.2 438.767 160.827 439.727 161.28C440.714 161.733 441.767 161.96 442.887 161.96C444.167 161.96 445.3 161.693 446.287 161.16C447.274 160.627 448.087 159.88 448.727 158.92L453.927 162.8C452.727 164.48 451.207 165.72 449.367 166.52C447.527 167.32 445.634 167.72 443.687 167.72C441.474 167.72 439.434 167.373 437.567 166.68C435.7 165.987 434.087 165 432.727 163.72C431.367 162.413 430.3 160.84 429.527 159C428.78 157.16 428.407 155.107 428.407 152.84C428.407 150.573 428.78 148.52 429.527 146.68C430.3 144.84 431.367 143.28 432.727 142C434.087 140.693 435.7 139.693 437.567 139C439.434 138.307 441.474 137.96 443.687 137.96C444.487 137.96 445.314 138.04 446.167 138.2C447.047 138.333 447.9 138.56 448.727 138.88C449.58 139.2 450.394 139.627 451.167 140.16C451.94 140.693 452.634 141.347 453.247 142.12L448.447 146.04ZM466.63 138.68H471.79L484.11 167H477.07L474.63 161H463.63L461.27 167H454.39L466.63 138.68ZM469.03 146.92L465.59 155.72H472.51L469.03 146.92ZM486.958 138.68H497.478C498.945 138.68 500.331 138.813 501.638 139.08C502.945 139.347 504.078 139.813 505.038 140.48C506.025 141.12 506.798 142 507.358 143.12C507.945 144.213 508.238 145.6 508.238 147.28C508.238 148.933 507.971 150.32 507.438 151.44C506.905 152.56 506.171 153.453 505.238 154.12C504.305 154.787 503.198 155.267 501.918 155.56C500.638 155.827 499.251 155.96 497.758 155.96H493.198V167H486.958V138.68ZM493.198 150.68H497.358C497.918 150.68 498.451 150.627 498.958 150.52C499.491 150.413 499.958 150.24 500.358 150C500.785 149.733 501.118 149.387 501.358 148.96C501.625 148.507 501.758 147.947 501.758 147.28C501.758 146.56 501.585 145.987 501.238 145.56C500.918 145.107 500.491 144.76 499.958 144.52C499.451 144.28 498.878 144.133 498.238 144.08C497.598 144 496.985 143.96 496.398 143.96H493.198V150.68ZM517.633 144.2H509.553V138.68H531.953V144.2H523.873V167H517.633V144.2ZM535.042 138.68H541.282V167H535.042V138.68ZM545.438 152.84C545.438 150.573 545.811 148.52 546.558 146.68C547.331 144.84 548.398 143.28 549.758 142C551.118 140.693 552.731 139.693 554.598 139C556.465 138.307 558.505 137.96 560.718 137.96C562.931 137.96 564.971 138.307 566.838 139C568.705 139.693 570.318 140.693 571.678 142C573.038 143.28 574.091 144.84 574.838 146.68C575.611 148.52 575.998 150.573 575.998 152.84C575.998 155.107 575.611 157.16 574.838 159C574.091 160.84 573.038 162.413 571.678 163.72C570.318 165 568.705 165.987 566.838 166.68C564.971 167.373 562.931 167.72 560.718 167.72C558.505 167.72 556.465 167.373 554.598 166.68C552.731 165.987 551.118 165 549.758 163.72C548.398 162.413 547.331 160.84 546.558 159C545.811 157.16 545.438 155.107 545.438 152.84ZM551.918 152.84C551.918 154.173 552.118 155.4 552.518 156.52C552.945 157.613 553.545 158.573 554.318 159.4C555.091 160.2 556.011 160.827 557.078 161.28C558.171 161.733 559.385 161.96 560.718 161.96C562.051 161.96 563.251 161.733 564.318 161.28C565.411 160.827 566.345 160.2 567.118 159.4C567.891 158.573 568.478 157.613 568.878 156.52C569.305 155.4 569.518 154.173 569.518 152.84C569.518 151.533 569.305 150.32 568.878 149.2C568.478 148.08 567.891 147.12 567.118 146.32C566.345 145.493 565.411 144.853 564.318 144.4C563.251 143.947 562.051 143.72 560.718 143.72C559.385 143.72 558.171 143.947 557.078 144.4C556.011 144.853 555.091 145.493 554.318 146.32C553.545 147.12 552.945 148.08 552.518 149.2C552.118 150.32 551.918 151.533 551.918 152.84ZM580.239 138.68H588.719L600.759 158.36H600.839V138.68H607.079V167H598.919L586.559 146.84H586.479V167H580.239V138.68ZM612.777 138.68H619.017V167H612.777V138.68ZM624.693 138.68H633.173L645.213 158.36H645.293V138.68H651.533V167H643.373L631.013 146.84H630.933V167H624.693V138.68ZM682.95 165C681.11 165.96 679.19 166.653 677.19 167.08C675.19 167.507 673.15 167.72 671.07 167.72C668.856 167.72 666.816 167.373 664.95 166.68C663.083 165.987 661.47 165 660.11 163.72C658.75 162.413 657.683 160.84 656.91 159C656.163 157.16 655.79 155.107 655.79 152.84C655.79 150.573 656.163 148.52 656.91 146.68C657.683 144.84 658.75 143.28 660.11 142C661.47 140.693 663.083 139.693 664.95 139C666.816 138.307 668.856 137.96 671.07 137.96C673.336 137.96 675.416 138.24 677.31 138.8C679.23 139.333 680.91 140.267 682.35 141.6L677.95 146.4C677.096 145.52 676.136 144.853 675.07 144.4C674.003 143.947 672.67 143.72 671.07 143.72C669.736 143.72 668.523 143.947 667.43 144.4C666.363 144.853 665.443 145.493 664.67 146.32C663.896 147.12 663.296 148.08 662.87 149.2C662.47 150.32 662.27 151.533 662.27 152.84C662.27 154.173 662.47 155.4 662.87 156.52C663.296 157.613 663.896 158.573 664.67 159.4C665.443 160.2 666.363 160.827 667.43 161.28C668.523 161.733 669.736 161.96 671.07 161.96C672.43 161.96 673.603 161.813 674.59 161.52C675.576 161.2 676.363 160.88 676.95 160.56V155.96H671.87V150.2H682.95V165Z" fill="white"/>
<path d="M80.9842 172.43C80.9842 172.514 80.956 172.598 80.8995 172.681C80.8429 172.765 80.7582 172.849 80.6433 172.931C80.5302 173.013 80.3908 173.096 80.2213 173.176C80.0536 173.256 79.8577 173.335 79.6373 173.413C79.415 173.492 79.1664 173.567 78.8932 173.641C78.6201 173.716 78.3224 173.787 78.0003 173.858C77.6781 173.927 77.3334 173.995 76.9642 174.06C76.5968 174.125 76.2069 174.187 75.7981 174.247C75.3874 174.307 74.9579 174.363 74.5095 174.417C74.0612 174.469 73.5959 174.52 73.1136 174.566C72.6314 174.613 72.134 174.656 71.6235 174.697C71.1111 174.736 70.5874 174.772 70.0524 174.804C69.5174 174.837 68.9711 174.865 68.4153 174.89C67.8615 174.914 67.2982 174.935 66.7312 174.951C66.1623 174.966 65.5877 174.979 65.0113 174.989C64.4348 174.996 63.8546 175 63.2763 175C62.696 175 62.1177 174.996 61.5394 174.989C60.9629 174.979 60.3903 174.966 59.8213 174.951C59.2524 174.935 58.6891 174.914 58.1353 174.89C57.5796 174.865 57.0351 174.837 56.4983 174.804C55.9633 174.772 55.4396 174.736 54.9272 174.697C54.4166 174.656 53.9193 174.613 53.437 174.566C52.9548 174.52 52.4895 174.469 52.0411 174.417C51.5928 174.363 51.1633 174.307 50.7526 174.247C50.3438 174.187 49.9538 174.125 49.5865 174.06C49.2191 173.995 48.8725 173.927 48.5504 173.858C48.2283 173.787 47.9306 173.716 47.6575 173.641C47.3843 173.567 47.1356 173.492 46.9152 173.413C46.6929 173.335 46.497 173.256 46.3294 173.176C46.1598 173.096 46.0204 173.013 45.9074 172.931C45.7943 172.849 45.7077 172.765 45.6512 172.681C45.5947 172.598 45.5664 172.514 45.5664 172.43C45.5664 172.346 45.5947 172.262 45.6512 172.178C45.7077 172.094 45.7943 172.01 45.9074 171.928C46.0204 171.845 46.1598 171.763 46.3294 171.683C46.497 171.602 46.6929 171.524 46.9152 171.445C47.1356 171.369 47.3843 171.292 47.6575 171.217C47.9306 171.143 48.2283 171.072 48.5504 171.001C48.8725 170.931 49.2191 170.864 49.5865 170.799C49.9538 170.733 50.3438 170.672 50.7526 170.612C51.1633 170.552 51.5928 170.496 52.0411 170.442C52.4895 170.389 52.9548 170.339 53.437 170.292C53.9193 170.246 54.4166 170.203 54.9272 170.161C55.4396 170.122 55.9633 170.087 56.4983 170.055C57.0351 170.021 57.5796 169.993 58.1353 169.969C58.6891 169.945 59.2524 169.924 59.8213 169.907C60.3903 169.892 60.9629 169.879 61.5394 169.872C62.1177 169.862 62.696 169.859 63.2763 169.859C63.8546 169.859 64.4348 169.862 65.0113 169.872C65.5877 169.879 66.1623 169.892 66.7312 169.907C67.2982 169.924 67.8615 169.945 68.4153 169.969C68.9711 169.993 69.5174 170.021 70.0524 170.055C70.5874 170.087 71.1111 170.122 71.6235 170.161C72.134 170.203 72.6314 170.246 73.1136 170.292C73.5959 170.339 74.0612 170.389 74.5095 170.442C74.9579 170.496 75.3874 170.552 75.7981 170.612C76.2069 170.672 76.5968 170.733 76.9642 170.799C77.3334 170.864 77.6781 170.931 78.0003 171.001C78.3224 171.072 78.6201 171.143 78.8932 171.217C79.1664 171.292 79.415 171.369 79.6373 171.445C79.8577 171.524 80.0536 171.602 80.2213 171.683C80.3908 171.763 80.5302 171.845 80.6433 171.928C80.7582 172.01 80.8429 172.094 80.8995 172.178C80.956 172.262 80.9842 172.346 80.9842 172.43Z" fill="#DDDDDD"/>
<path d="M68.9801 122.459C68.5654 122.459 68.1458 122.41 67.7311 122.317C64.7451 121.621 62.8617 118.641 63.5399 115.626L63.818 114.391C64.8817 109.646 65.7892 105.568 69.024 100.607C69.4582 99.9405 69.9022 99.2934 70.3658 98.6268C72.9517 94.823 74.5227 92.3526 73.986 89.7252C73.7079 88.3675 72.8151 87.1616 71.7075 86.6665C70.7512 86.2303 69.7022 86.3724 68.5019 87.0832C65.8526 88.6272 62.447 87.7449 60.8906 85.0735C59.339 82.4167 60.2319 79.0002 62.8959 77.4366C67.2236 74.9024 71.9661 74.5641 76.2353 76.466C80.6411 78.4267 83.8613 82.5393 84.8908 87.4557C86.4179 94.8574 82.6122 100.421 79.5628 104.901L78.343 106.71C76.2206 109.969 75.6352 112.553 74.6789 116.832L74.4007 118.101C73.8006 120.694 71.5221 122.459 68.9801 122.459Z" fill="white" fill-opacity="0.9"/>
<mask id="mask0_1123_1029" style="mask-type:luminance" maskUnits="userSpaceOnUse" x="38" y="54" width="68" height="107">
<path fill-rule="evenodd" clip-rule="evenodd" d="M38.0293 54.159H105.325V160.627H38.0293V54.159Z" fill="white"/>
</mask>
<g mask="url(#mask0_1123_1029)">
<path d="M63.2983 160.347C63.1474 160.347 62.9917 160.347 62.8213 160.347C52.097 160.161 43.4708 153.584 40.3212 143.219C39.4303 140.265 41.0903 137.139 44.0112 136.241C46.9758 135.357 50.0524 137.011 50.9433 139.956C52.6617 145.614 57.1646 149.069 63.0209 149.177C63.1134 149.177 63.1912 149.177 63.2691 149.177C68.4633 149.177 74.6409 146.238 76.9142 139.583C78.0388 136.319 78.4672 132.869 78.9442 129.232C79.6501 123.692 80.4484 117.41 83.968 111.329C84.9368 109.656 85.9201 108.095 86.8743 106.564C90.2429 101.195 92.9009 96.9397 93.0664 90.8443C93.3926 79.8854 89.6588 72.2146 82.2642 68.6222C74.305 64.7549 62.9284 66.394 55.8162 72.4305C51.9558 75.7089 47.9007 81.4951 50.4662 90.4566C51.3132 93.4257 49.6192 96.5225 46.6691 97.3715C43.7191 98.2206 40.662 96.5225 39.8003 93.5484C36.5582 82.2411 39.7857 71.4245 48.6504 63.8862C59.0729 55.0376 75.225 52.7948 87.0738 58.5515C93.7138 61.7661 104.764 70.3104 104.151 91.1682C103.888 100.311 99.9985 106.515 96.2501 112.502C95.3592 113.925 94.4343 115.383 93.5435 116.929C91.163 121.061 90.5934 125.503 89.9314 130.656C89.4251 134.695 88.8896 138.871 87.3951 143.219C83.895 153.526 74.2417 160.347 63.2983 160.347Z" fill="#F5F5F5"/>
</g>
<path d="M132.299 123.464C131.598 123.464 130.887 123.339 130.186 123.085C127.161 121.956 125.645 118.678 126.815 115.763L127.109 115.041C128.279 112.121 131.696 110.664 134.706 111.793C137.737 112.922 139.247 116.2 138.077 119.121L137.783 119.842C136.886 122.081 134.66 123.464 132.299 123.464Z" fill="#F5F5F5" fill-opacity="0.62"/>
<mask id="mask1_1123_1029" style="mask-type:luminance" maskUnits="userSpaceOnUse" x="45" y="18" width="98" height="94">
<path fill-rule="evenodd" clip-rule="evenodd" d="M45.0625 18H142.491V111.411H45.0625V18Z" fill="white"/>
</mask>
<g mask="url(#mask1_1123_1029)">
<path d="M135.277 110.605C134.891 110.605 134.505 110.556 134.105 110.477C131.104 109.829 129.19 106.856 129.825 103.848C132.182 92.7385 131.826 81.3533 128.775 70.9116C123.797 53.8707 112.01 40.7313 95.6015 33.9306C82.5798 28.5255 67.5424 28.0145 53.3201 32.5056C50.3771 33.4343 47.2632 31.7784 46.3554 28.8351C45.4281 25.8917 47.0631 22.7469 50.0061 21.8182C66.7078 16.5507 84.4296 17.1698 99.8672 23.5823C107.977 26.9436 115.141 31.6015 121.174 37.3523C129.711 45.4898 135.983 55.8154 139.469 67.752C143.047 79.9775 143.476 93.2495 140.719 106.173C140.147 108.806 137.834 110.605 135.277 110.605Z" fill="white" fill-opacity="0.3"/>
</g>
<mask id="mask2_1123_1029" style="mask-type:luminance" maskUnits="userSpaceOnUse" x="31" y="26" width="15" height="15">
<path fill-rule="evenodd" clip-rule="evenodd" d="M31 26.0353H45.0618V40.0971H31V26.0353Z" fill="white"/>
</mask>
<g mask="url(#mask2_1123_1029)">
<path d="M36.5552 39.9276C34.6599 39.9276 32.8132 38.9338 31.7851 37.1561C30.2162 34.4646 31.0786 30.9691 33.7097 29.3612L34.6599 28.747C35.2007 28.4025 35.3079 28.3076 36.9401 27.5036C39.7077 26.1504 43.0307 27.3289 44.3511 30.1652C45.691 32.9965 44.5216 36.3821 41.7541 37.7554C41.2279 38.005 40.9843 38.1299 40.8137 38.2248C40.458 38.4595 40.1072 38.6991 39.3812 39.1386C38.5091 39.6729 37.52 39.9276 36.5552 39.9276Z" fill="#E0E0E0" fill-opacity="0.898"/>
</g>
<path d="M113.539 116.433C112.847 116.433 112.145 116.283 111.465 115.987C108.836 114.806 107.623 111.671 108.776 108.967C109.323 107.669 109.825 106.338 110.271 104.993C111.192 102.204 114.141 100.695 116.862 101.656C119.583 102.603 121.037 105.63 120.116 108.423C119.583 110.05 118.977 111.657 118.302 113.241C117.455 115.233 115.54 116.433 113.539 116.433Z" fill="white" fill-opacity="0.8"/>
<path d="M118.743 97.3487C118.636 97.3487 118.529 97.3487 118.436 97.334C115.375 97.1627 113.021 94.5386 113.192 91.4542C114.235 72.8357 105.296 57.7715 89.2954 51.1525C80.0741 47.3387 68.8448 47.231 58.4586 50.844C55.5343 51.8477 52.3955 50.3006 51.3964 47.4023C50.3924 44.4991 51.9179 41.3169 54.8276 40.3133C67.753 35.8239 81.8628 36.0246 93.5405 40.8567C113.806 49.2382 125.606 68.8555 124.314 92.0711C124.114 95.0477 121.668 97.3487 118.743 97.3487Z" fill="white" fill-opacity="0.5"/>
<path d="M72.1819 133.505C72.1819 133.902 72.1463 134.293 72.0702 134.679C71.989 135.071 71.8773 135.447 71.7249 135.813C71.5726 136.179 71.3899 136.525 71.1665 136.855C70.9482 137.18 70.6994 137.485 70.4201 137.765C70.1409 138.045 69.8363 138.299 69.5063 138.517C69.1763 138.736 68.831 138.924 68.4655 139.071C68.0999 139.224 67.7191 139.341 67.3333 139.417C66.9474 139.493 66.5514 139.534 66.1554 139.534C65.7594 139.534 65.3684 139.493 64.9826 139.417C64.5917 139.341 64.216 139.224 63.8504 139.071C63.4849 138.924 63.1396 138.736 62.8096 138.517C62.4796 138.299 62.175 138.045 61.8957 137.765C61.6165 137.485 61.3677 137.18 61.1443 136.855C60.926 136.525 60.7432 136.179 60.5909 135.813C60.4386 135.447 60.3218 135.071 60.2457 134.679C60.1695 134.293 60.1289 133.902 60.1289 133.505C60.1289 133.109 60.1695 132.717 60.2457 132.331C60.3218 131.944 60.4386 131.563 60.5909 131.202C60.7432 130.836 60.926 130.485 61.1443 130.16C61.3677 129.83 61.6165 129.525 61.8957 129.245C62.175 128.965 62.4796 128.716 62.8096 128.498C63.1396 128.274 63.4849 128.091 63.8504 127.939C64.216 127.786 64.5917 127.674 64.9826 127.598C65.3684 127.517 65.7594 127.481 66.1554 127.481C66.5514 127.481 66.9474 127.517 67.3333 127.598C67.7191 127.674 68.0999 127.786 68.4655 127.939C68.831 128.091 69.1763 128.274 69.5063 128.498C69.8363 128.716 70.1409 128.965 70.4201 129.245C70.6994 129.525 70.9482 129.83 71.1665 130.16C71.3899 130.485 71.5726 130.836 71.7249 131.202C71.8773 131.563 71.989 131.944 72.0702 132.331C72.1463 132.717 72.1819 133.109 72.1819 133.505Z" fill="white"/>
</g>
<defs>
<clipPath id="clip0_1123_1029">
<rect width="720" height="200" fill="white"/>
</clipPath>
</defs>
</svg>
