<svg width="2192" height="468" viewBox="0 0 2192 468" fill="none" xmlns="http://www.w3.org/2000/svg">
<path d="M252.497 44.1H270.942V196H252.497V44.1ZM330.617 44.1H353.402L287.651 115.276L356.657 196H333.872L265.3 115.71L330.617 44.1ZM385.394 122.22V104.86H489.554V122.22H385.394ZM477.185 44.1H495.63V196H477.185V44.1ZM375.195 44.1H393.64V196H375.195V44.1ZM529.231 44.1H547.676V146.09C547.676 156.506 550.497 164.897 556.139 171.262C561.781 177.627 570.027 180.81 580.877 180.81C591.727 180.81 599.973 177.627 605.615 171.262C611.257 164.897 614.078 156.506 614.078 146.09V44.1H632.523V146.09C632.523 153.613 631.293 160.557 628.834 166.922C626.519 173.287 623.047 178.785 618.418 183.414C613.933 188.043 608.508 191.66 602.143 194.264C595.778 196.868 588.689 198.17 580.877 198.17C573.065 198.17 565.976 196.868 559.611 194.264C553.246 191.66 547.748 188.043 543.119 183.414C538.634 178.785 535.162 173.287 532.703 166.922C530.388 160.557 529.231 153.613 529.231 146.09V44.1ZM650.963 61.46V44.1H747.528V61.46H708.468V196H690.023V61.46H650.963ZM781.563 115.71V105.511H806.084C811.147 105.511 815.704 104.643 819.755 102.907C823.806 101.171 826.988 98.6393 829.303 95.312C831.618 91.9847 832.775 87.934 832.775 83.16C832.775 75.9267 830.243 70.357 825.18 66.451C820.117 62.4003 813.751 60.375 806.084 60.375H785.469V179.725H808.254C814.764 179.725 820.478 178.568 825.397 176.253C830.46 173.938 834.366 170.611 837.115 166.271C840.008 161.931 841.455 156.651 841.455 150.43C841.455 145.801 840.659 141.678 839.068 138.061C837.477 134.444 835.162 131.406 832.124 128.947C829.231 126.488 825.759 124.679 821.708 123.522C817.657 122.22 813.173 121.569 808.254 121.569H781.563V111.37H808.254C815.632 111.37 822.431 112.166 828.652 113.757C834.873 115.348 840.298 117.808 844.927 121.135C849.701 124.318 853.39 128.441 855.994 133.504C858.598 138.567 859.9 144.571 859.9 151.515C859.9 161.497 857.585 169.815 852.956 176.47C848.471 182.98 842.323 187.899 834.511 191.226C826.844 194.409 818.091 196 808.254 196H767.024V44.1H806.084C815.198 44.1 823.082 45.4743 829.737 48.223C836.536 50.9717 841.817 55.167 845.578 60.809C849.339 66.3063 851.22 73.395 851.22 82.075C851.22 89.1637 849.339 95.2397 845.578 100.303C841.817 105.366 836.536 109.2 829.737 111.804C823.082 114.408 815.198 115.71 806.084 115.71H781.563ZM899.387 150.43L905.897 133.07H973.167L979.677 150.43H899.387ZM939.098 78.386L913.492 138.712L911.756 142.618L889.188 196H868.573L939.098 36.505L1009.62 196H989.008L966.874 143.92L965.138 139.58L939.098 78.386ZM1038.3 122.22V104.86H1142.46V122.22H1038.3ZM1130.09 44.1H1148.54V196H1130.09V44.1ZM1028.1 44.1H1046.55V196H1028.1V44.1Z" fill="#1f1f1f">
    <animate attributeName="fill-opacity" values="1;0.9;0.6;1" dur="2s" repeatCount="indefinite" />
</path>
<path d="M32.6794 341.05C32.6794 352.768 35.2834 363.112 40.4914 372.081C45.8441 381.05 52.7881 388.067 61.3234 393.13C69.8588 398.193 79.1174 400.725 89.0994 400.725C96.3328 400.725 102.915 399.785 108.846 397.904C114.922 396.023 120.42 393.419 125.338 390.092C130.257 386.62 134.452 382.642 137.924 378.157V402.461C131.559 408.103 124.615 412.298 117.092 415.047C109.57 417.796 100.239 419.17 89.0994 419.17C78.5388 419.17 68.6291 417.289 59.3704 413.528C50.2564 409.622 42.2274 404.197 35.2834 397.253C28.3394 390.164 22.9144 381.846 19.0084 372.298C15.1024 362.75 13.1494 352.334 13.1494 341.05C13.1494 329.766 15.1024 319.35 19.0084 309.802C22.9144 300.254 28.3394 292.008 35.2834 285.064C42.2274 277.975 50.2564 272.55 59.3704 268.789C68.6291 264.883 78.5388 262.93 89.0994 262.93C100.239 262.93 109.57 264.304 117.092 267.053C124.615 269.802 131.559 273.997 137.924 279.639V303.943C134.452 299.458 130.257 295.552 125.338 292.225C120.42 288.753 114.922 286.077 108.846 284.196C102.915 282.315 96.3328 281.375 89.0994 281.375C79.1174 281.375 69.8588 283.907 61.3234 288.97C52.7881 294.033 45.8441 301.05 40.4914 310.019C35.2834 318.844 32.6794 329.187 32.6794 341.05ZM192.591 371.43L199.101 354.07H266.371L272.881 371.43H192.591ZM232.302 299.386L206.696 359.712L204.96 363.618L182.392 417H161.777L232.302 257.505L302.827 417H282.212L260.078 364.92L258.342 360.58L232.302 299.386ZM332.156 265.1H350.601V417H332.156V265.1ZM342.355 282.46V265.1H373.386C383.224 265.1 391.976 266.981 399.643 270.742C407.455 274.359 413.604 279.567 418.088 286.366C422.718 293.165 425.032 301.267 425.032 310.67C425.032 319.929 422.718 328.03 418.088 334.974C413.604 341.773 407.455 347.054 399.643 350.815C391.976 354.432 383.224 356.24 373.386 356.24H342.355V338.88H373.386C383.224 338.88 391.18 336.493 397.256 331.719C403.477 326.945 406.587 319.929 406.587 310.67C406.587 301.267 403.477 294.25 397.256 289.621C391.18 284.847 383.224 282.46 373.386 282.46H342.355ZM440.131 282.46V265.1H536.696V282.46H497.636V417H479.191V282.46H440.131ZM567.042 265.1H585.487V417H567.042V265.1ZM641.932 341.05C641.932 352.479 644.392 362.678 649.31 371.647C654.374 380.616 661.245 387.705 669.925 392.913C678.605 398.121 688.443 400.725 699.437 400.725C710.577 400.725 720.414 398.121 728.949 392.913C737.629 387.705 744.429 380.616 749.347 371.647C754.411 362.678 756.942 352.479 756.942 341.05C756.942 329.621 754.411 319.422 749.347 310.453C744.429 301.484 737.629 294.395 728.949 289.187C720.414 283.979 710.577 281.375 699.437 281.375C688.443 281.375 678.605 283.979 669.925 289.187C661.245 294.395 654.374 301.484 649.31 310.453C644.392 319.422 641.932 329.621 641.932 341.05ZM622.402 341.05C622.402 329.911 624.283 319.639 628.044 310.236C631.95 300.688 637.375 292.442 644.319 285.498C651.263 278.409 659.437 272.912 668.84 269.006C678.244 264.955 688.443 262.93 699.437 262.93C710.577 262.93 720.776 264.955 730.034 269.006C739.438 272.912 747.611 278.409 754.555 285.498C761.499 292.442 766.852 300.688 770.613 310.236C774.519 319.639 776.472 329.911 776.472 341.05C776.472 352.045 774.519 362.316 770.613 371.864C766.852 381.412 761.499 389.73 754.555 396.819C747.611 403.763 739.438 409.26 730.034 413.311C720.776 417.217 710.577 419.17 699.437 419.17C688.443 419.17 678.244 417.217 668.84 413.311C659.437 409.26 651.263 403.763 644.319 396.819C637.375 389.73 631.95 381.412 628.044 371.864C624.283 362.316 622.402 352.045 622.402 341.05ZM928.381 265.1H946.826V424.595L831.816 303.943V417H813.371V257.505L928.381 378.157V265.1ZM992.481 265.1H1010.93V417H992.481V265.1ZM1171.53 265.1H1189.98V424.595L1074.97 303.943V417H1056.52V257.505L1171.53 378.157V265.1ZM1306.16 357.325V339.965H1376.68C1376.68 350.526 1375.09 360.58 1371.91 370.128C1368.72 379.531 1364.02 387.922 1357.8 395.3C1351.58 402.678 1343.91 408.537 1334.8 412.877C1325.83 417.072 1315.56 419.17 1303.99 419.17C1292.99 419.17 1282.79 417.289 1273.39 413.528C1263.99 409.622 1255.81 404.197 1248.87 397.253C1241.92 390.164 1236.5 381.846 1232.59 372.298C1228.83 362.75 1226.95 352.334 1226.95 341.05C1226.95 329.766 1228.83 319.35 1232.59 309.802C1236.5 300.254 1241.92 292.008 1248.87 285.064C1255.81 277.975 1263.99 272.55 1273.39 268.789C1282.79 264.883 1292.99 262.93 1303.99 262.93C1313.39 262.93 1322 264.16 1329.81 266.619C1337.77 269.078 1344.85 272.695 1351.07 277.469C1357.44 282.243 1362.79 288.174 1367.13 295.263L1354.11 307.198C1349.34 299.097 1342.68 292.804 1334.15 288.319C1325.61 283.69 1315.56 281.375 1303.99 281.375C1293.28 281.375 1283.59 283.907 1274.91 288.97C1266.23 294.033 1259.28 301.05 1254.08 310.019C1249.01 318.844 1246.48 329.187 1246.48 341.05C1246.48 352.768 1249.01 363.112 1254.08 372.081C1259.28 381.05 1266.23 388.067 1274.91 393.13C1283.59 398.193 1293.28 400.725 1303.99 400.725C1311.51 400.725 1318.24 399.64 1324.17 397.47C1330.24 395.155 1335.45 391.973 1339.79 387.922C1344.13 383.871 1347.68 379.242 1350.42 374.034C1353.32 368.826 1355.41 363.256 1356.72 357.325H1306.16Z" fill="#295D85">
    <animate attributeName="fill-opacity" values="1;0.9;0.5;1" dur="2s" repeatCount="indefinite" />
</path>
<path d="M1649 326C1649 323.238 1651.24 321 1654 321H1763.19C1767.75 321 1769.93 326.592 1766.58 329.677L1657.39 430.272C1654.18 433.224 1649 430.951 1649 426.595L1649 326Z" fill="#295D85"/>
<path d="M1459 70C1459 47.9086 1476.91 30 1499 30H2142C2164.09 30 2182 47.9086 2182 70V301C2182 323.091 2164.09 341 2142 341H1758H1703H1655H1499C1476.91 341 1459 323.091 1459 301V70Z" fill="#295D85"/>
<path d="M1482 70C1482 58.9543 1490.95 50 1502 50H2145C2156.05 50 2165 58.9543 2165 70V301C2165 312.046 2156.05 321 2145 321H1764.46H1712.5H1667.16H1502C1490.95 321 1482 312.046 1482 301V70Z" fill="#FFFFFF"/>
<path d="M1664 321H1751L1664 399L1664 321Z" fill="#FFFFFF"/>
<path d="M2033.09 131.949V141.228H2028.07C2026.35 141.228 2024.71 141.323 2023.16 141.539V132.402C2023.16 119.898 2016.22 113.392 2004.26 113.392H1933.83C1921.87 113.392 1914.99 119.898 1914.99 132.402V176.137C1914.99 188.697 1921.87 195.147 1933.83 195.147H1941.4C1944.05 195.147 1946.19 196.731 1946.19 200.182V218.4L1968.82 198.145C1971.41 195.882 1972.99 195.147 1976.44 195.147H1999.91V204.482H1976.04L1952.17 224.906C1948.56 228.075 1946.47 229.716 1943.48 229.716C1939.25 229.716 1936.82 226.717 1936.82 222.021V204.482H1933.1C1916 204.482 1905 194.355 1905 176.589V131.949C1905 114.241 1916 104 1933.1 104H2004.99C2022.09 104 2033.09 114.241 2033.09 131.949Z" fill="#031522">
    <animate attributeName="fill-opacity" values="1;0.8;0.5;1" dur="2s" repeatCount="indefinite" />
</path>
<path d="M1975.65 127.31L1994.04 176.533C1995.23 179.927 1993.48 183.209 1989.75 183.209C1987.38 183.209 1985.92 181.907 1985.01 179.305L1980.16 165.613H1958.1L1953.24 179.305C1952.34 181.907 1950.87 183.209 1948.5 183.209C1944.84 183.209 1942.97 179.984 1944.22 176.533L1962.55 127.31C1963.68 124.255 1965.94 122.614 1969.1 122.614C1972.26 122.614 1974.52 124.255 1975.65 127.31ZM1960.69 157.692H1977.45L1969.04 133.956L1960.69 157.692Z" fill="#031522">
    <animate attributeName="fill-opacity" values="1;0.6;0.75;1" dur="2s" repeatCount="indefinite" />
</path>
<path d="M2128 169.178V213.817C2128 231.526 2117 241.71 2099.9 241.71H2096.17V259.193C2096.17 263.889 2093.75 266.944 2089.52 266.944C2086.53 266.944 2084.44 265.247 2080.83 262.135L2057.01 241.71H2028.07C2010.29 241.71 1999.91 231.583 1999.91 213.874V169.178C1999.91 151.412 2010.29 141.228 2028.07 141.228H2099.9C2117 141.228 2128 151.412 2128 169.178ZM2041.55 175.175C2039.01 175.175 2037.1 176.985 2037.1 179.362C2037.1 181.851 2039.01 183.661 2041.55 183.661H2047.42C2049.34 190.903 2053.01 197.693 2058.37 203.464C2053.23 207.028 2047.48 209.405 2040.65 211.045C2038.17 211.611 2036.76 213.987 2037.26 216.42C2037.94 219.079 2040.59 220.154 2043.47 219.419C2051.15 217.664 2058.31 214.384 2064.86 209.461C2071.18 214.327 2078.34 217.608 2085.57 219.362C2088.78 220.098 2091.49 219.192 2092.17 216.42C2092.85 213.817 2091.6 211.611 2088.9 211.045C2082.12 209.461 2076.48 207.085 2071.23 203.464C2076.54 197.806 2080.21 191.073 2082.12 183.661H2087.99C2090.53 183.661 2092.45 181.851 2092.45 179.362C2092.45 176.985 2090.53 175.175 2087.99 175.175H2041.55ZM2064.86 198.145C2060.91 193.902 2057.97 188.98 2056.22 183.661H2073.32C2071.63 188.923 2068.75 193.845 2064.86 198.145ZM2058.03 156.448C2055.83 157.523 2054.93 160.069 2056.05 162.388L2059.84 170.366C2060.85 172.629 2063.45 173.534 2065.65 172.516C2068.02 171.328 2068.92 168.782 2067.79 166.575L2063.95 158.654C2062.83 156.278 2060.34 155.259 2058.03 156.448Z" fill="#031522">
    <animate attributeName="fill-opacity" values="1;0.8;0.65;1" dur="2s" repeatCount="indefinite" />
</path>
<path d="M1659.67 102.496L1535.49 101.88C1534.81 101.877 1534.45 102.491 1534.58 103.151L1535.04 105.359L1539.44 129.179L1539.42 129.287C1540.54 138.133 1543.09 151.288 1546.05 165.134L1559.96 240.411C1560.08 241.071 1560.8 241.709 1561.49 241.712L1680.6 242.012L1668.66 260.426L1548.71 259.851C1548.03 259.848 1547.39 259.339 1547.26 258.679L1522.55 125.45L1520 125.4C1519.31 125.397 1518.96 126.011 1519.08 126.671L1544.55 264.059C1544.67 264.719 1545.31 265.228 1545.99 265.231L1670.19 265.74C1670.48 265.741 1670.74 265.575 1670.92 265.436C1670.94 265.422 1671.01 265.471 1671.03 265.456L1671.05 265.349L1686.91 241.677L1686.74 241.42C1686.77 241.278 1686.72 241.242 1686.69 241.077L1661.12 103.669C1660.99 103.008 1660.36 102.499 1659.67 102.496ZM1532.17 109.817L1524.78 121.425L1550.24 256.581L1666.39 256.639L1673.43 245.634L1558.48 245.14C1557.8 245.137 1557.27 244.649 1557.14 243.989L1532.17 109.817Z" fill="#031522">
    <animate attributeName="fill-opacity" values="1;0.8;0.6;1" dur="2s" repeatCount="indefinite" />
</path>
<path d="M1617.35 118.602C1617.45 118.425 1619.2 121.144 1620.83 123.974C1621.51 125.141 1622.47 127.051 1622.73 128.031L1622.76 128.708L1621.44 127.779L1620.27 126.882L1620.54 128.946C1620.77 130.81 1621.45 134.434 1622.27 138.169C1622.44 138.973 1623.36 143.189 1624.29 147.615C1625.22 152.041 1626.09 156.359 1626.28 157.224C1626.46 158.089 1626.82 159.518 1627 160.383C1627.18 161.248 1627.73 163.809 1628.23 166.154C1628.72 168.499 1629.15 170.941 1629.19 171.54C1629.42 174.507 1628.42 177.109 1626.62 178.752C1625.61 179.67 1623.82 180.786 1622.44 181.292C1621.93 181.479 1621.45 181.524 1621.37 181.588C1621.28 181.665 1621.44 182.499 1621.61 183.814C1622.17 188.083 1622.07 192.815 1621.48 195.694C1620.94 198.339 1620.96 198.234 1620.57 194.343C1620.23 190.942 1619.78 188.296 1618.93 183.796C1618.54 181.717 1618.56 181.634 1618.21 181.476C1615.86 180.423 1614.78 179.798 1613.81 179.111C1612.33 178.075 1610.56 176.677 1607.87 174.269C1607.11 173.591 1605.98 172.53 1605.31 171.927C1602.28 169.216 1597.06 165.222 1595.97 164.747C1595.35 164.471 1595.51 164.867 1596.43 165.842C1600.71 170.378 1602.36 174.105 1601.92 178.143C1601.77 179.552 1601.46 179.962 1600.52 181.056C1599.68 182.03 1598.81 182.691 1596.98 183.722C1595.1 184.779 1595.09 184.754 1590.77 186.37C1588.7 187.14 1586.4 188.082 1585.68 188.399C1581.82 190.091 1578.92 192.31 1577.03 194.933L1576.36 195.809L1576.46 197.002C1576.82 201.747 1578.83 205.378 1582.03 207.14C1583.87 208.146 1587.11 208.951 1589.4 208.908C1591.29 208.871 1594.79 208.15 1595.69 207.615C1595.84 207.522 1595.93 207.263 1595.98 207C1596.17 205.982 1597.08 202.639 1597.62 201.116L1598.26 199.563L1596.83 198.28C1595.68 197.186 1595.61 196.849 1595.66 196.543C1595.8 195.75 1596.96 193.863 1597.36 193.855C1597.47 193.855 1597.74 194.028 1597.97 194.142C1598.39 194.349 1598.42 194.245 1599.52 193.101C1601.4 191.143 1602.88 189.293 1603.52 188.011C1603.87 187.319 1603.91 187.197 1603.39 186.979C1602.74 186.707 1602.23 185.81 1602.28 184.919C1602.44 182.308 1603.81 180.979 1604.98 182.258C1605.21 182.516 1605.53 182.804 1605.66 183.061C1605.93 183.614 1606.02 185.041 1605.9 186.126C1605.82 186.871 1605.72 186.881 1606.17 187.351C1606.73 187.944 1607.01 188.462 1606.85 188.994C1606.69 189.551 1606.25 189.439 1605.56 188.743L1605.01 188.132L1604.56 188.716C1603.73 189.817 1600.71 193.199 1599.84 194.003L1599.04 194.685L1600.18 195.744C1600.76 196.318 1601.27 196.832 1601.28 196.965C1601.31 197.343 1600.93 198.006 1599.94 199.554C1598.94 201.112 1598.48 202.401 1598.06 204.051C1597.8 205.077 1597.51 206.832 1597.69 206.829C1598.26 206.817 1604.3 203.627 1606.47 202.166C1608.44 200.842 1610.72 198.945 1612.26 197.422C1614.1 195.602 1614.1 195.561 1613.76 194.864C1613.67 194.68 1613.31 193.829 1612.94 193.028C1612.21 191.433 1611.9 190.882 1610.01 187.428C1609.31 186.149 1608.29 184.277 1607.79 183.308L1606.94 181.634L1607.03 180.31C1607.19 179.088 1607.52 178.063 1607.83 177.949C1607.91 177.917 1608.62 178.576 1609.25 179.233C1609.88 179.89 1611.04 181.029 1611.92 181.93C1612.79 182.831 1613.59 183.676 1613.57 183.761C1613.5 184.064 1612.83 183.999 1612.09 183.64C1611.67 183.44 1611.18 183.383 1611.12 183.451C1610.95 183.645 1611.86 185.588 1613.11 187.863C1614.74 190.82 1615.17 191.649 1615.4 193.338C1615.81 196.358 1614.93 198.889 1612.44 201.649C1609.82 204.568 1604.73 207.962 1599.16 210.469C1597.51 211.209 1597.34 211.316 1597.43 212.479C1597.56 214.286 1598.62 216.608 1599.75 217.793C1601.82 219.976 1604.13 219.582 1607.39 216.428C1608.72 215.14 1609.89 213.711 1612.26 210.333C1616.76 203.924 1618.98 202.002 1626.66 198.377C1629.44 197.066 1629.27 197.069 1630.75 196.321C1631.34 196.021 1631.97 195.896 1632 195.895C1632.05 195.892 1632.47 195.697 1632.94 195.405L1633.74 194.723L1633.35 193.305C1632.26 189.653 1631.84 186.448 1632.23 184.37C1632.59 182.451 1633.5 180.739 1634.57 180.129C1635.15 179.795 1636.78 179.641 1637.47 179.855C1638.6 180.207 1640.09 182.29 1640.92 184.549C1642.32 188.395 1641.47 192.688 1638.53 195.989L1637.66 196.994L1638.05 197.573C1638.67 198.389 1640.01 199.293 1641 199.655C1642.12 200.062 1644.21 200.198 1645.49 199.857C1647 199.453 1649.09 198.037 1649.89 197.025L1650.12 196.733L1648.92 189.961C1648.26 186.216 1647.62 182.292 1647.42 181.286C1646.33 175.769 1645.65 172.327 1644.96 168.904C1644.63 167.235 1643.24 160.84 1642.88 158.941C1642.58 157.4 1640.14 144.968 1638.4 136.274C1638 134.302 1637.68 132.397 1637.69 132.113C1637.72 131.609 1638.57 129.467 1638.71 129.461C1638.99 129.452 1641.45 133.711 1642.23 135.51C1642.86 136.961 1643.62 139.157 1643.64 139.473C1643.68 139.945 1642.89 139.46 1642.15 138.513C1641.61 137.817 1641.57 137.896 1641.73 138.935C1641.82 139.438 1642.21 142.381 1642.67 145.321C1643.43 150.163 1643.89 152.207 1645.8 162.024C1646.12 163.674 1646.51 165.928 1646.69 166.893C1646.88 167.859 1647.43 170.298 1647.82 172.31C1648.21 174.322 1648.7 177.586 1649.09 179.598C1649.99 184.238 1650.53 186.325 1651.01 188.691C1651.29 190.074 1651.43 191.142 1651.52 192.981C1651.67 196.269 1651.44 197.923 1650.52 199.829C1649.66 201.611 1648.3 202.58 1646.15 203.339C1644.94 203.767 1644.61 203.901 1643.18 203.936C1641.96 203.967 1641.33 203.98 1640.7 203.788C1639.17 203.325 1637.73 201.869 1636.32 199.583C1635.93 198.965 1635.47 198.395 1635.37 198.394C1634.98 198.391 1631.04 200.149 1628.03 201.662C1625.05 203.162 1621.27 205.345 1620.31 206.029C1618.17 207.559 1616.15 209.699 1612.38 214.884C1610.77 217.106 1608.66 219.611 1607.6 220.494C1606.21 221.664 1604.78 222.067 1603.03 221.616C1600.42 220.944 1598.15 218.75 1597.09 215.935C1596.67 214.829 1596.11 213.051 1596.07 212.551C1596.04 212.16 1596.04 212.055 1594.26 212.367C1592.23 212.724 1589.06 212.946 1587.29 212.857C1583.39 212.659 1580.44 211.238 1578.42 208.45C1576.81 206.217 1575.98 203.608 1575.57 199.847C1575.43 198.557 1575.3 197.374 1575.23 197.267C1575.14 197.121 1574.84 197.263 1574.3 197.756C1573.9 198.119 1573.29 198.751 1572.85 199.152C1571.73 200.178 1571.17 200.398 1569.92 200.427C1568.07 200.467 1566.44 199.829 1564.81 198.259C1563.08 196.593 1562.07 194.363 1561.87 191.82C1561.72 189.765 1561.91 187.932 1562.68 185.101C1563.29 182.85 1563.39 182.571 1563.66 181.771C1563.79 181.373 1563.84 180.978 1563.81 180.963C1563.79 180.948 1563.48 180.823 1563.04 180.645C1561.92 180.198 1560.73 179.538 1559.74 178.661C1557.76 176.912 1557.03 175.203 1556.8 172.222C1556.55 169.051 1557.21 165.776 1559.19 161.621L1560.02 159.938L1559.79 159.391C1559.32 158.274 1558.96 156.758 1559.03 155.554C1559.19 152.763 1560.34 150.233 1563.08 145.945L1564.04 144.455L1563.71 143.553C1563.43 142.25 1563.6 140.323 1564.01 138.58C1564.19 137.809 1564.43 137.086 1564.48 136.996C1564.82 136.382 1571.84 132.282 1576.77 129.828C1583.14 126.665 1590.1 123.764 1596.1 121.848C1596.52 121.713 1597.49 121.349 1598.26 121.094C1599.88 120.552 1604.9 119.23 1607.12 118.625C1609.68 117.926 1611.24 118.102 1612.51 119.338C1613.83 120.622 1613.5 123.334 1611.71 126.896C1610.46 129.388 1609.3 131.006 1606.33 134.736C1605.52 135.764 1604.41 137.428 1603.8 138.268C1603.2 139.108 1602.71 139.753 1602.68 139.727C1602.57 139.623 1602.9 138.276 1603.34 137.173C1604.05 135.43 1605.22 133.569 1607.63 130.63C1609.24 128.675 1611.04 126.288 1611.26 125.801C1611.52 125.202 1611.55 124.08 1611.21 123.444C1611.07 123.174 1610.65 122.778 1610.37 122.61C1609.87 122.32 1609.71 122.438 1607.53 122.561C1604 122.76 1602.51 123.032 1595.54 125.595C1590.08 127.6 1589.16 127.994 1582.43 130.927C1581.97 131.126 1581.12 131.518 1580.59 131.744C1574.91 134.156 1570.14 136.666 1565.46 139.702C1565.22 139.86 1565.04 140.077 1565.05 140.124C1565.05 140.173 1565.4 140.354 1565.79 140.604C1566.18 140.854 1566.95 141.378 1567.57 141.789C1568.19 142.2 1570.15 143.502 1571.88 144.638C1573.61 145.775 1575.54 147.056 1576.19 147.488C1576.84 147.919 1577.99 148.568 1578.59 148.96C1579.19 149.352 1580.29 150.069 1581.11 150.625C1581.94 151.181 1583.23 152.056 1583.93 152.514C1584.63 152.972 1585.63 153.602 1586.17 153.954C1589.55 156.17 1589.33 156.051 1589.66 155.808C1590.22 155.401 1592.59 154.477 1594.01 154.138C1594.84 153.94 1596.22 153.817 1597.27 153.765L1598.98 153.594L1598.91 153.078C1598.87 152.789 1598.45 151.277 1597.89 149.695C1596.39 145.442 1595.39 142.814 1595.01 141.253C1594.51 139.245 1594.31 136.429 1594.46 135.446C1594.61 134.43 1595.11 132.766 1595.32 132.762C1595.48 132.761 1599.52 139.988 1599.42 140.1C1599.4 140.133 1598.97 139.937 1598.49 139.75L1597.55 139.4L1597.74 140.109C1598.17 142.52 1598.48 143.538 1598.97 145.041C1599.96 148.127 1601.09 150.651 1602.43 152.252C1603.32 153.325 1605.19 154.903 1606.45 155.717C1607.5 156.394 1607.59 156.529 1607.81 157.323C1608.08 158.279 1608.14 160.445 1607.93 161.035L1607.83 161.519L1606.96 160.846C1605.96 160.007 1604.86 159.427 1603.33 158.8C1601.66 158.113 1600.42 157.811 1598.49 157.858C1596.76 157.899 1595.9 158.097 1594.65 158.621L1593.94 158.819L1596.27 160.614C1599.81 163.298 1605.96 168.209 1607.75 169.719C1610.6 172.13 1612.94 174.136 1613.81 174.754C1614.91 175.527 1616.52 176.357 1616.86 176.351C1617.07 176.349 1617.18 176.377 1616.31 171.383C1615.64 167.515 1614.31 160.675 1613.72 157.969C1612.79 153.68 1610.33 140.966 1610.23 139.686C1610.2 139.222 1610.43 138.805 1610.71 138.102L1611.09 137.002L1611.48 137.581C1612.96 139.704 1614.5 142.329 1615.26 144.016C1615.57 144.707 1616.32 146.81 1616.34 147.077C1616.34 147.146 1615.75 146.814 1615.14 146.341C1614.53 145.868 1614.02 145.443 1613.98 145.444C1613.93 145.446 1614 145.738 1614.04 145.96C1614.09 146.181 1614.48 148.374 1614.94 150.829C1615.41 153.284 1616.43 158.202 1617.16 161.824C1618.65 169.155 1619.37 172.681 1619.79 175.076C1619.94 175.962 1620.01 176.715 1620.12 176.817C1620.22 176.92 1620.86 177.035 1621.41 177.069C1622.23 177.119 1622.56 177.128 1623.47 176.799C1625.43 176.098 1627.33 174.459 1627.27 173.68C1627.23 173.234 1625.77 164.963 1625.34 162.909C1625.15 162.024 1624.82 160.474 1624.64 159.588C1624.46 158.703 1623.96 156.345 1623.51 154.172C1623.07 151.999 1622.48 149.326 1622.29 148.4C1622.1 147.475 1621.77 145.965 1621.59 145.079C1621.25 143.382 1620.44 139.122 1619.9 136.535C1619.72 135.69 1619.29 134.067 1619.07 133.021C1618.86 131.975 1618.39 129.269 1617.88 127.088C1616.73 122.191 1616.51 121.596 1616.91 120.024C1617.07 119.375 1617.3 118.704 1617.35 118.602ZM1627.99 121.676C1628.26 121.949 1630.72 126.011 1631.41 127.37C1632.2 128.934 1633.01 130.809 1633.24 131.75L1633.31 132.266L1633.01 132.042C1632.81 131.881 1632.33 131.363 1631.88 130.983C1631.43 130.603 1631.03 130.281 1631 130.31C1630.96 130.362 1631.5 133.302 1632.8 139.209C1633.16 140.858 1633.97 144.259 1634.51 146.753C1635.06 149.247 1635.52 151.463 1635.57 151.654L1635.67 152.008L1635.9 151.716C1636.06 151.546 1636.4 150.973 1636.63 150.518L1637.11 149.773L1636.33 148.615C1635.33 147.156 1635.22 146.606 1635.73 145.649C1636.42 144.389 1637.41 143.888 1638.12 144.603C1639.02 145.511 1639.38 147.299 1638.92 149.118C1638.79 149.601 1638.64 150.055 1638.7 150.249C1638.76 150.44 1638.92 150.757 1638.89 150.958C1638.84 151.292 1638.7 151.339 1638.35 151.187C1637.93 151.005 1638.01 150.845 1637.16 152.129C1636.95 152.447 1636.51 153.109 1636.23 153.458L1635.78 154.041L1636.04 155.266C1637.12 160.259 1637.21 164.976 1636.44 167.917C1636.11 169.17 1636.2 169.191 1636.15 168.532C1635.93 165.764 1634.97 160.427 1634.32 158.116C1633.77 156.202 1633.67 156.139 1632.89 156.833C1631.88 157.73 1630.38 158.912 1629.55 159.368C1629.41 159.442 1629.26 159.437 1629.19 159.467C1629.4 159.207 1630.03 158.524 1631.12 157.326L1633.3 154.732L1633.1 153.184C1630.82 141.15 1629.31 134.367 1627.73 128.165C1627.33 126.597 1627.04 125.125 1627.04 124.844C1627.01 123.789 1627.7 121.393 1627.99 121.676ZM1595.16 116.301C1595.36 116.296 1594.89 117.126 1594.4 117.661C1593.81 118.305 1593.22 118.609 1587.35 121.153C1582.52 123.244 1578.25 125.25 1576.5 126.086C1575.86 126.387 1575.24 126.673 1575.21 126.674C1575.17 126.677 1575.35 126.377 1575.49 126.059C1575.64 125.741 1575.85 125.218 1576.04 124.991C1576.39 124.549 1578.6 123.409 1581.09 122.284C1583.78 121.071 1594.95 116.305 1595.16 116.301ZM1613.54 129.597C1614.34 129.582 1615.48 129.884 1616.06 130.423C1617.41 131.689 1617.28 133.767 1615.7 134.879C1615.01 135.361 1614.51 135.452 1613.96 135.212C1613.03 134.813 1612.81 134.632 1612.75 132.797C1612.72 131.886 1612.8 130.737 1612.9 130.311C1613.05 129.62 1613.19 129.605 1613.54 129.597ZM1600.36 127.538C1600.42 127.713 1600.51 128.476 1600.46 129.571C1600.39 131.262 1600.51 131.999 1601.06 132.538C1601.57 133.04 1601.74 132.954 1602.09 132.403C1602.25 132.157 1602.43 131.982 1602.51 131.981C1602.79 131.976 1602.67 132.993 1602.36 133.628C1601.93 134.504 1601.26 134.776 1600.88 134.346C1599.92 133.283 1599.57 130.804 1600.01 128.476C1600.16 127.666 1600.29 127.364 1600.36 127.538ZM1614.55 131.303C1614.06 131.152 1613.64 131.104 1613.55 131.276C1613.51 131.339 1613.46 131.85 1613.49 132.438C1613.51 133.25 1613.58 133.556 1613.75 133.663C1614.09 133.881 1615.25 133.697 1615.66 133.362C1616.09 133.003 1616.11 132.41 1615.75 132.039C1615.47 131.755 1615.04 131.453 1614.55 131.303ZM1625.48 135.44L1625.52 136.117C1625.45 138.123 1625.55 139.366 1625.76 140.022C1626.01 140.788 1626.37 141.345 1626.8 141.566C1627.04 141.687 1627.13 141.607 1627.41 141.013C1627.7 140.423 1627.88 140.387 1627.99 140.623C1628.32 141.334 1628.18 142.517 1627.68 143.078C1627.36 143.444 1626.72 143.372 1626.2 142.957C1625.25 142.201 1624.71 140.542 1624.91 138.348C1624.98 137.614 1625.2 136.689 1625.32 136.247L1625.48 135.44ZM1648.42 139.899L1649.72 141.829C1651.66 144.697 1652.63 146.285 1653.24 147.878C1654.07 150.015 1654 150.136 1652.67 149.108C1652.05 148.63 1651.54 148.21 1651.5 148.211C1651.43 148.214 1651.4 148.267 1651.84 150.791C1652.44 154.284 1652.6 155.117 1654.95 165.816C1655.75 169.441 1656.5 173.271 1656.95 176.264C1657.36 179.035 1657.87 185.056 1657.74 185.975C1657.66 186.548 1656.79 188.894 1656.57 189.435C1656.55 189.226 1656.23 187.784 1656 186.307C1655.78 184.831 1655.57 182.985 1655.46 182.179C1654.43 174.631 1654.22 173.782 1651.08 159.026C1650.54 156.492 1649.62 152.235 1649.06 149.58C1648.49 146.924 1647.88 144.588 1647.74 144.293C1647.34 143.481 1647.39 142.279 1647.88 140.968L1648.42 139.899ZM1585.15 132.462L1585.22 132.978C1585.27 133.256 1585.28 134.206 1585.16 134.98C1584.88 136.805 1584.95 138.098 1585.41 138.884C1585.94 139.799 1586.06 139.838 1586.64 139.459L1587.22 139.068L1587.25 139.746C1587.37 141.242 1585.88 141.928 1584.84 140.953C1584.27 140.422 1584.1 139.73 1584.08 137.955C1584.06 136.616 1584.39 134.442 1584.83 133.239L1585.15 132.462ZM1637.29 146.286C1636.48 146.097 1636.39 146.857 1637.2 147.61C1637.78 148.157 1638.12 148.156 1638.07 147.444C1638.03 146.922 1637.64 146.369 1637.29 146.286ZM1576.19 135.416C1576.4 135.269 1576.41 136.592 1576.2 137.934C1575.94 139.67 1576.06 140.697 1576.51 141.515C1577.02 142.44 1577.18 142.555 1577.71 142.251C1577.95 142.113 1578.19 141.956 1578.26 142.022C1578.46 142.213 1578.27 143.244 1577.95 143.637C1577.55 144.116 1576.58 144.219 1576.07 143.777C1575.27 143.076 1575 141.611 1575.24 139.423C1575.39 138.125 1576 135.547 1576.19 135.416ZM1608.51 143.375C1608.61 143.347 1608.65 143.386 1608.84 143.438C1609.58 143.637 1609.88 143.891 1609.94 144.659C1609.97 145.037 1609.99 145.446 1609.94 145.498C1609.9 145.55 1609.54 145.372 1609.17 145.179C1607.79 144.483 1607.77 144.566 1607.99 148.64L1608.17 152.028L1607.36 151.032C1605.72 148.921 1604.66 148.093 1603.57 148.115C1602.72 148.131 1602.13 147.543 1602.04 146.477C1601.99 145.834 1602.16 145.763 1602.97 145.988C1603.97 146.261 1605.23 147.092 1606.25 148.133C1606.71 148.614 1607.12 148.88 1607.12 148.806C1607.13 148.731 1607.17 148.604 1607.18 148.483C1607.2 148.361 1607.26 147.715 1607.27 147.159C1607.32 145.494 1607.65 144.505 1608.29 143.667C1608.39 143.534 1608.41 143.405 1608.51 143.375ZM1591.04 141.824C1591.17 141.792 1591.18 141.819 1591.36 141.886C1592.4 142.258 1592.86 143.124 1592.44 144.108L1592.19 144.561L1591.63 143.951C1590.21 142.74 1589.74 143.604 1590 147.155C1590.19 149.632 1590.11 151.959 1589.74 151.966C1589.68 151.965 1589.26 151.355 1588.83 150.615C1587.55 148.4 1586.78 147.643 1585.71 147.663C1584.63 147.684 1583.87 146.591 1584.02 145.154C1584.07 144.654 1584.24 144.644 1584.79 144.633C1585.86 144.612 1586.71 145.386 1588.26 147.487C1589.27 148.852 1589.43 148.778 1589.33 147.191C1589.16 144.618 1589.58 142.726 1590.49 142.053C1590.71 141.891 1590.91 141.855 1591.04 141.824ZM1656.75 158.285C1656.84 158.323 1656.79 158.938 1656.73 160.125C1656.69 161.042 1656.75 162.113 1656.78 162.481C1656.84 163.375 1657.15 164.462 1657.63 164.995L1658.05 165.412L1658.27 165.12C1658.6 164.641 1658.96 164.831 1659.02 165.6C1659.08 166.408 1658.66 166.917 1658.09 166.929C1657.79 166.935 1657.59 166.858 1657.18 166.417C1656.15 165.302 1655.8 163.441 1656.28 159.869C1656.43 158.724 1656.67 158.246 1656.75 158.285ZM1619.01 151.453L1619.05 152.13C1618.9 155.48 1618.85 155.999 1619.14 156.843C1619.32 157.365 1620.51 158.679 1620.8 158.674C1620.87 158.671 1621.02 158.303 1621.11 157.897C1621.3 157.132 1621.29 157.005 1621.56 157.314C1622.04 157.842 1622.01 159.595 1621.51 160.154C1621.19 160.527 1620.48 160.555 1620 160.195C1619.09 159.522 1618.22 157.16 1618.26 155.33C1618.29 154.109 1618.59 152.778 1618.89 152.099L1619.01 151.453ZM1639.74 157.829C1639.77 158.041 1639.69 158.598 1639.59 159.476C1639.26 162.232 1639.61 163.793 1640.58 164.699L1641.04 164.955L1641.32 164.34L1641.77 163.757L1641.78 164.596C1641.79 165.272 1641.66 165.822 1641.46 166.212C1641.21 166.694 1641.17 166.723 1640.69 166.732C1640.27 166.741 1640 166.674 1639.75 166.382C1639.22 165.753 1638.96 164.934 1638.9 163.03C1638.83 161.278 1639.14 159.246 1639.51 158.12C1639.67 157.646 1639.71 157.616 1639.74 157.829ZM1564.72 145.258L1564.46 145.712C1563.08 147.801 1561.69 150.655 1561.37 152.152C1561.07 153.553 1561.58 156.02 1562.2 156.505C1562.66 156.866 1563.2 156.742 1563.81 155.98C1564.54 155.071 1565.01 154.565 1565.03 154.876C1565.07 155.403 1564.8 156.746 1564.34 157.591C1563.7 158.755 1562.75 159.757 1561.51 160.899C1560.68 161.667 1560.5 161.83 1560.14 162.811C1558.2 168.032 1557.72 170.782 1558.29 173.182C1558.57 174.382 1559.43 175.974 1559.98 176.53C1561.01 177.557 1563.31 178.039 1564.67 177.441C1567.02 176.405 1571.99 172.252 1575.47 168.473C1578.64 165.019 1583.29 160.18 1583.68 159.843L1584.1 159.421L1579.56 156.024C1574.24 152.187 1567.65 147.442 1565.89 146.156L1564.72 145.258ZM1572.77 153.866C1572.92 153.91 1573.05 153.952 1573.22 154.121L1573.65 154.539L1573.62 156.379L1573.79 158.088L1574.18 158.667C1575.13 159.65 1575.72 160.955 1575.33 161.405C1575.21 161.542 1575 161.537 1574.55 161.086C1573.32 159.834 1573.45 159.805 1572.68 161.225C1570.93 164.451 1567.96 167.619 1563.57 171.023L1562.38 171.965L1563.24 170.96C1563.71 170.414 1565.33 168.594 1566.9 166.809C1569.54 163.814 1571.2 161.719 1572.03 160.261L1572.32 159.646L1571.73 159.197C1570.94 158.492 1570.47 157.528 1570.4 156.59C1570.29 155.131 1571.03 154.1 1572.25 153.933C1572.52 153.896 1572.63 153.822 1572.77 153.866ZM1610.38 161.344C1610.45 161.395 1610.38 161.935 1610.26 162.83C1609.94 165.401 1610.16 166.64 1611.03 167.506L1611.32 167.731L1611.77 167.147C1612.09 166.749 1612.23 166.641 1612.35 166.757C1612.61 166.994 1612.39 168.141 1611.97 168.695C1611.51 169.313 1611.08 169.48 1610.56 169.09C1609.82 168.54 1609.49 168.047 1609.38 166.514C1609.27 165.105 1609.4 163.98 1609.84 162.412C1610.07 161.611 1610.32 161.292 1610.38 161.344ZM1572.07 155.742C1571.96 155.746 1571.87 155.833 1571.69 156.002C1571.43 156.234 1571.4 156.381 1571.56 156.648C1571.76 156.987 1572.4 157.382 1572.76 157.384C1572.93 157.385 1573.11 157.191 1573.05 156.769C1572.99 156.422 1572.73 156.155 1572.52 155.997C1572.32 155.841 1572.19 155.738 1572.07 155.742ZM1638.57 169.003C1638.92 168.857 1639.51 169.252 1641.23 170.861L1642.79 172.338L1642.24 173.406C1641.66 174.563 1641.09 175.173 1640.71 175.286C1640.54 175.334 1639.93 174.843 1638.79 173.909C1637.85 173.132 1637.07 172.562 1637.04 172.562C1637.02 172.562 1636.6 173.154 1636.11 173.891C1635.63 174.628 1635.11 175.186 1635.02 175.188C1634.45 175.199 1631.46 172.661 1631.42 172.141C1631.42 172.036 1631.68 171.255 1632.09 170.426L1632.89 168.905L1633.34 169.161C1633.59 169.298 1634.4 170.05 1635.22 170.7L1636.68 171.822L1637.07 171.561C1637.22 171.377 1637.53 170.756 1637.84 170.202C1638.14 169.648 1638.45 169.056 1638.57 169.003ZM1625.62 167.492C1625.67 167.539 1625.6 167.829 1625.5 168.138C1625.32 168.641 1625.05 168.969 1622.89 170.315C1621.57 171.144 1620.29 171.941 1620.03 172.106L1619.64 172.366L1619.74 171.881C1619.77 171.603 1619.77 171.335 1619.86 171.235C1620.08 170.992 1623.87 168.42 1624.88 167.851C1625.32 167.603 1625.57 167.448 1625.62 167.492ZM1587.41 162.243L1586.64 162.764C1584.43 164.26 1582.63 166.026 1576.3 172.826C1575.41 173.776 1573.12 176.046 1572.15 176.884C1570.38 178.429 1566.92 180.713 1565.82 181.017C1565.53 181.097 1565.25 181.261 1564.95 182.023C1563.67 185.324 1562.99 189.024 1563.16 191.232C1563.36 193.79 1564.66 196.59 1566.16 197.349C1567.28 197.912 1568.62 197.693 1570.1 196.94C1571.04 196.462 1571.31 196.244 1573.6 193.596C1576.12 190.691 1577.35 189.569 1579.35 188.175C1581.25 186.846 1585.14 184.913 1588.46 183.574C1593.31 181.619 1597.02 179.643 1599.47 177.833C1600.27 177.243 1600.85 176.788 1600.85 176.761C1600.81 176.319 1599.64 174.295 1598.73 172.996C1596.75 170.159 1593.76 167.167 1589.16 163.59L1587.41 162.243ZM1589.46 171.529C1589.69 171.37 1590.58 171.925 1592.12 173.386L1593.67 174.863L1593.39 175.478C1592.43 177.4 1591.93 177.789 1591.43 177.78C1591.33 177.777 1590.77 177.405 1590.1 176.851C1588.06 175.167 1587.89 175.116 1587.7 175.379C1587.62 175.504 1587.19 176.084 1586.78 176.708C1586.37 177.332 1586.06 177.906 1586.04 177.906C1585.58 177.916 1582.66 175.678 1582.25 174.989C1582.11 174.763 1582.18 174.414 1582.75 173.243C1583.14 172.452 1583.53 171.63 1583.58 171.56C1583.74 171.375 1584.22 171.688 1585.98 173.032C1586.85 173.698 1587.55 174.187 1587.6 174.186C1587.75 174.183 1588.15 173.648 1588.75 172.565C1589.06 172.014 1589.39 171.577 1589.46 171.529ZM1635.72 183.706C1635.32 183.742 1634.94 183.986 1634.59 184.325C1633.6 185.283 1633.3 186.365 1633.67 188.171C1634.03 189.924 1635.17 192.503 1635.86 193.292C1636.02 193.467 1636.85 192.936 1638.31 191.923C1639.14 191.351 1640.06 190.348 1640.04 189.912C1639.96 187.711 1638.55 185.061 1636.98 184.119C1636.54 183.854 1636.11 183.669 1635.72 183.706ZM1644.9 186.497C1644.91 186.676 1644.94 187.033 1644.84 187.659C1644.45 190.067 1644.7 191.993 1645.67 192.851C1646.11 193.239 1646.35 193.026 1646.45 192.331C1646.51 191.859 1646.78 191.66 1646.83 192.07C1646.94 192.892 1646.74 193.661 1646.23 194.301C1646.04 194.538 1645.88 194.652 1645.49 194.66C1645.03 194.669 1644.82 194.7 1644.55 194.31C1644.11 193.65 1643.96 192.411 1644.05 190.859C1644.12 189.624 1644.37 187.842 1644.67 186.788C1644.79 186.392 1644.89 186.317 1644.9 186.497ZM1579.19 176.91C1579.52 176.957 1579.89 177.298 1580.23 177.615C1580.7 178.06 1580.83 178.149 1580.85 178.741C1580.86 179.111 1580.73 179.473 1580.69 179.549C1580.54 179.832 1580.22 179.689 1579.75 179.199C1579.49 178.921 1579.12 178.716 1579.01 178.719C1578.74 178.724 1578.56 179.741 1578.54 181.981C1578.53 183.932 1578.35 185.276 1578.14 185.76C1578.01 186.055 1578.09 186.045 1577.59 185.15C1577.29 184.618 1576.71 183.707 1576.29 183.22C1575.52 182.344 1575.37 182.338 1574.77 182.421C1574.2 182.498 1574.12 182.363 1573.54 181.847C1572.84 181.238 1572.88 180.941 1573.07 179.913C1573.21 179.212 1573.45 179.032 1574.04 179.262C1574.51 179.447 1576 180.779 1577.02 182.022C1577.7 182.847 1577.96 182.97 1577.93 182.533C1577.93 182.392 1577.81 181.47 1577.82 180.5C1577.83 179.013 1578.01 178.71 1578.32 177.915C1578.69 176.977 1578.67 176.835 1579.19 176.91ZM1626.82 186.336C1626.98 186.367 1627.22 186.41 1627.27 186.592C1627.54 187.489 1627.5 187.862 1627.18 187.916C1626.99 187.947 1626.69 187.804 1626.57 187.629C1626.37 187.345 1626.39 187.381 1625.89 187.664C1625.32 187.991 1625.34 188.148 1625.54 188.603C1625.85 189.305 1627.16 189.573 1628.29 189.136C1629.39 188.71 1629.62 188.753 1629.64 189.064C1629.69 189.572 1628.92 190.25 1627.78 190.882C1627.17 191.222 1626.55 191.641 1626.24 191.923C1625.68 192.434 1624.58 192.96 1624.56 192.772C1624.56 192.666 1625.04 192.029 1625.49 191.443C1625.88 190.943 1625.85 190.743 1625.13 189.864C1624.34 188.905 1624.32 188.385 1624.89 187.638C1625.62 186.682 1626.35 186.242 1626.82 186.336ZM1603.5 183.815C1603.39 183.863 1603.25 184.057 1603.25 184.269C1603.23 184.713 1604.08 185.529 1604.51 185.521C1604.76 185.515 1604.88 185.548 1604.77 185.067C1604.6 184.33 1603.85 183.674 1603.5 183.815ZM1596.62 188.178C1596.75 188.155 1596.7 188.359 1596.72 188.532C1596.75 188.97 1596 189.87 1595.37 190.283C1595.05 190.492 1593.01 191.621 1590.7 192.729C1586.32 194.83 1583.4 196.417 1582.85 196.903L1582.46 197.163L1583.02 197.774C1583.87 198.974 1583.87 200.082 1582.99 199.614C1582.83 199.527 1582.39 199.183 1582.12 198.941C1581.67 198.545 1581.75 198.415 1581.69 197.684C1581.65 197.205 1581.65 196.708 1581.78 196.36C1582.2 195.245 1582.61 194.876 1586.44 193.075C1588.43 192.142 1590.46 191.284 1590.86 191.082C1591.26 190.88 1592.24 190.264 1593.11 189.843C1593.98 189.422 1595.17 188.929 1595.68 188.667C1596.23 188.387 1596.49 188.203 1596.62 188.178ZM1569.32 183.71C1569.32 183.847 1569.21 184.245 1569.1 184.841C1568.61 187.415 1568.82 188.97 1569.48 189.777C1569.67 190.014 1569.7 190.03 1569.96 189.871C1570.13 189.77 1570.42 189.58 1570.57 189.319L1570.83 188.866L1570.83 189.705C1570.9 190.483 1570.82 190.747 1570.55 191.159C1570.16 191.752 1569.94 191.837 1569.43 191.779C1568.83 191.712 1568.29 191.23 1568.03 190.334C1567.83 189.644 1567.83 189.28 1567.98 187.978C1568.16 186.425 1568.7 184.426 1569.12 183.84C1569.23 183.69 1569.32 183.573 1569.32 183.71ZM1605.29 191.875C1605.49 191.771 1605.8 191.897 1606.42 192.095C1608.05 192.618 1609.06 193.838 1609.02 195.115C1608.97 196.551 1607.72 197.749 1606.32 197.777C1605.66 197.79 1605.61 197.756 1605.22 197.395C1604.86 197.06 1604.61 196.938 1604.57 196.431C1604.51 195.654 1604.74 194.142 1604.94 192.813C1605.02 192.246 1605.08 191.98 1605.29 191.875ZM1605.65 193.455C1605.28 193.482 1605.19 193.883 1605.21 194.878C1605.22 195.761 1605.26 195.904 1605.47 196.103C1605.82 196.429 1606.69 196.494 1607.31 196.125C1607.59 195.96 1607.95 195.725 1608.08 195.605C1608.32 195.394 1608.27 195.36 1607.89 194.896C1607.38 194.287 1606.84 193.79 1606.14 193.549C1605.95 193.486 1605.78 193.446 1605.65 193.455ZM1638.12 204.964C1638.13 204.998 1638.28 204.925 1638.28 204.996C1638.3 205.167 1638.2 205.968 1638.1 206.804C1637.86 208.776 1637.92 209.927 1638.51 210.74C1639.03 211.45 1639.3 211.371 1639.73 210.475C1639.9 210.124 1640.13 209.679 1640.24 209.569C1640.44 209.387 1640.51 209.485 1640.47 210.116C1640.44 210.78 1640.08 211.89 1639.68 212.477C1639.45 212.822 1638.78 212.954 1638.29 212.71C1637.33 212.232 1637.1 209.709 1637.65 206.548C1637.75 205.908 1638.03 205.177 1638.12 204.964ZM1591.24 196.858C1591.52 196.895 1591.89 197.06 1592.31 197.401C1593.09 198.028 1593.26 198.251 1593 199.043L1592.74 199.497L1592 199.016C1591.12 198.417 1590.82 198.307 1590.74 198.604C1590.71 198.706 1590.9 199.975 1591.04 201.346C1591.26 203.385 1591.2 203.92 1591.06 204.703C1590.97 205.229 1590.9 205.762 1590.84 205.833C1590.78 205.908 1590.48 205.703 1590.26 205.385C1590.04 205.077 1589.7 204.586 1589.47 204.227C1588.64 202.92 1587.72 202.19 1586.85 202.208C1586.23 202.22 1585.85 201.782 1585.78 200.825C1585.69 199.748 1585.88 199.605 1586.35 199.596C1587.06 199.581 1588.34 200.647 1589.66 202.418C1589.88 202.712 1590.16 203.029 1590.21 203.029C1590.39 203.026 1590.41 202.358 1590.3 200.866C1590.18 199.296 1590.31 197.889 1590.66 197.248C1590.81 196.982 1590.97 196.822 1591.24 196.858ZM1632.3 208.191C1632.83 208.181 1633.54 208.694 1633.92 209.345C1634.23 209.886 1634.27 209.878 1634.05 210.377C1633.93 210.657 1633.81 210.991 1633.77 210.992C1633.72 210.993 1633.27 210.755 1632.86 210.48C1632.04 209.931 1631.57 209.799 1631.4 210.198C1631.34 210.341 1631.36 211.464 1631.42 212.715C1631.5 214.882 1631.34 216.97 1631.02 217.333C1630.96 217.406 1630.49 216.927 1630.08 216.144C1629.12 214.326 1628.34 213.305 1627.32 213.092C1626.29 212.875 1626.08 212.814 1625.67 212.101C1625.24 211.358 1625.17 210.497 1625.43 209.875C1625.59 209.502 1625.64 209.571 1625.98 209.646C1627.2 209.915 1628.36 210.956 1629.94 213.433L1630.72 214.591L1630.68 213.914C1630.7 213.559 1630.75 212.618 1630.77 211.75C1630.77 210.882 1630.91 209.925 1631.01 209.619C1631.27 208.838 1631.84 208.201 1632.3 208.191ZM1573.28 200.409C1573.31 200.435 1573.21 200.959 1573.06 201.54C1572.72 202.864 1572.66 204.065 1573.11 204.735C1573.47 205.266 1573.7 205.269 1574.24 204.955C1574.46 204.833 1574.54 204.806 1574.6 204.856C1574.75 205 1574.84 205.698 1574.7 206.05C1574.28 207.041 1573.63 207.248 1572.9 206.705C1572.1 206.115 1571.76 204.285 1572.23 202.383C1572.44 201.529 1573.15 200.286 1573.28 200.409ZM1620.22 213.389C1620.54 213.383 1621.04 213.931 1621.06 214.224C1621.08 214.458 1621.05 214.497 1620.68 214.484C1619.95 214.459 1619.98 214.38 1619.78 214.812L1619.52 215.265L1619.62 214.78C1619.69 214.207 1620 213.394 1620.22 213.389ZM1623.82 216.436C1623.95 216.407 1623.98 216.51 1624.11 216.661C1624.26 216.826 1624.3 216.835 1624.05 216.984C1623.66 217.211 1623.46 217.487 1623.57 217.729C1623.71 218.04 1624.05 218.019 1624.73 217.787C1625.09 217.665 1625.4 217.552 1625.44 217.589C1625.64 217.772 1624.91 218.537 1623.8 219.115C1622.12 219.995 1621.47 220.245 1620.93 220.067C1620.62 219.963 1620.29 220.01 1619.74 220.17C1618.83 220.437 1618.32 220.351 1617.74 220.117C1617.5 220.016 1617.09 220.048 1616.74 220.09C1616.24 220.148 1615.92 220.102 1615.61 219.87C1615.21 219.574 1615.34 219.563 1615.47 218.838C1615.73 217.388 1616.31 216.655 1616.79 217.249C1617.1 217.634 1617.06 217.688 1616.47 218.025C1615.72 218.449 1615.47 218.86 1615.9 219.255C1616.08 219.425 1616.38 219.589 1616.51 219.542C1617.2 219.296 1618.05 218.823 1618.18 218.694C1618.3 218.581 1618.22 218.385 1618.02 217.823C1617.71 216.987 1617.68 216.94 1618.14 217.177C1618.45 217.334 1618.57 217.434 1618.57 218.434C1618.57 219.597 1618.67 219.628 1619.38 219.43C1619.76 219.326 1619.89 218.946 1620.21 217.747C1620.4 217.062 1620.55 216.903 1620.92 216.71C1621.41 216.445 1621.86 216.548 1621.89 216.898C1621.89 217.032 1621.72 216.991 1621.53 216.997C1621.14 217.012 1620.56 217.635 1620.7 217.841C1620.75 217.923 1620.98 217.939 1621.18 217.935C1621.53 217.929 1621.6 217.961 1621.57 218.514C1621.54 219.087 1621.55 219.102 1621.96 219.093C1622.2 219.09 1622.47 219.026 1622.67 218.895C1622.98 218.69 1623.07 218.572 1623.02 217.957C1622.98 217.406 1622.99 217.125 1623.24 216.826C1623.42 216.608 1623.69 216.465 1623.82 216.436ZM1591.75 213.22C1591.8 213.219 1591.79 213.903 1591.79 214.737C1591.81 216.382 1592.03 217.088 1592.71 217.766L1593.13 218.184L1593.58 217.6C1594.11 217.01 1594.19 216.944 1594.2 217.887C1594.2 218.38 1593.61 219.566 1593.37 219.571C1593.26 219.571 1593.11 219.635 1593.01 219.669C1592.91 219.703 1592.69 219.61 1592.53 219.575C1592.37 219.539 1592.05 219.406 1591.91 219.288C1591.56 218.994 1591.22 217.878 1591.16 217.129C1591.06 215.828 1591.43 213.226 1591.75 213.22Z" fill="#000000">
    <animate attributeName="fill-opacity" values="1;0.8;0.7;1" dur="2s" repeatCount="indefinite" />
</path>
<path d="M1856.96 209.835C1859.82 209.835 1862 207.542 1862 204.733V166.268C1862 163.459 1859.82 161.108 1856.96 161.108C1854.04 161.108 1851.86 163.459 1851.86 166.268V204.733C1851.86 207.542 1854.04 209.835 1856.96 209.835Z" fill="#031522"/>
<path d="M1832.57 244.689C1835.43 244.689 1837.66 242.396 1837.66 239.586V131.414C1837.66 128.605 1835.43 126.255 1832.57 126.255C1829.65 126.255 1827.53 128.605 1827.53 131.414V239.586C1827.53 242.396 1829.65 244.689 1832.57 244.689Z" fill="#031522">
    <animate attributeName="fill-opacity" values="1;0.65;0.8;1" dur="2s" repeatCount="indefinite" />
</path>
<path d="M1808.17 223.822C1811.09 223.822 1813.27 221.586 1813.27 218.778V152.223C1813.27 149.414 1811.09 147.121 1808.17 147.121C1805.25 147.121 1803.13 149.414 1803.13 152.223V218.778C1803.13 221.586 1805.25 223.822 1808.17 223.822Z" fill="#031522"/>
<path d="M1783.77 262C1786.69 262 1788.87 259.765 1788.87 256.955V114.045C1788.87 111.236 1786.69 109 1783.77 109C1780.91 109 1778.73 111.236 1778.73 114.045V256.955C1778.73 259.765 1780.91 262 1783.77 262Z" fill="#031522"/>
<path d="M1759.38 232.191C1762.3 232.191 1764.53 229.956 1764.53 227.146V143.854C1764.53 141.045 1762.3 138.752 1759.38 138.752C1756.51 138.752 1754.39 141.045 1754.39 143.854V227.146C1754.39 229.956 1756.51 232.191 1759.38 232.191Z" fill="#031522">
    <animate attributeName="fill-opacity" values="1;0.6;0.75;1" dur="2s" repeatCount="indefinite" />
</path>
<path d="M1735.04 203.07C1737.96 203.07 1740.14 200.835 1740.14 197.968V173.032C1740.14 170.166 1737.96 167.873 1735.04 167.873C1732.12 167.873 1730 170.166 1730 173.032V197.968C1730 200.835 1732.12 203.07 1735.04 203.07Z" fill="#031522"/>
</svg>
